<?xml version="1.0" encoding="UTF-8" standalone="no"?>
<svg
   xmlns:dc="http://purl.org/dc/elements/1.1/"
   xmlns:cc="http://creativecommons.org/ns#"
   xmlns:rdf="http://www.w3.org/1999/02/22-rdf-syntax-ns#"
   xmlns:svg="http://www.w3.org/2000/svg"
   xmlns="http://www.w3.org/2000/svg"
   xmlns:sodipodi="http://sodipodi.sourceforge.net/DTD/sodipodi-0.dtd"
   xmlns:inkscape="http://www.inkscape.org/namespaces/inkscape"
   sodipodi:docname="brown_button_round.svg"
   inkscape:version="1.0 (4035a4fb49, 2020-05-01)"
   id="svg526"
   version="1.1"
   viewBox="0 0 210 297"
   height="297mm"
   width="210mm">
  <defs
     id="defs520" />
  <sodipodi:namedview
     inkscape:window-maximized="0"
     inkscape:window-y="1"
     inkscape:window-x="1998"
     inkscape:window-height="864"
     inkscape:window-width="1261"
     showgrid="false"
     inkscape:document-rotation="0"
     inkscape:current-layer="layer1"
     inkscape:document-units="mm"
     inkscape:cy="80.270901"
     inkscape:cx="621.44033"
     inkscape:zoom="11.2"
     inkscape:pageshadow="2"
     inkscape:pageopacity="0.0"
     borderopacity="1.0"
     bordercolor="#666666"
     pagecolor="#ffffff"
     id="base" />
  <metadata
     id="metadata523">
    <rdf:RDF>
      <cc:Work
         rdf:about="">
        <dc:format>image/svg+xml</dc:format>
        <dc:type
           rdf:resource="http://purl.org/dc/dcmitype/StillImage" />
        <dc:title></dc:title>
      </cc:Work>
    </rdf:RDF>
  </metadata>
  <g
     id="layer1"
     inkscape:groupmode="layer"
     inkscape:label="Layer 1">
    <path
       style="stroke-width:0.264583"
       stroke="none"
       fill="#886644"
       d="m 160.16741,19.390178 v -0.132291 q 0,-1.918229 1.33615,-3.280834 l 0.0132,-0.01323 q 1.3626,-1.336146 3.28083,-1.336146 1.91823,0 3.2676,1.336146 v 0.01323 q 1.36261,1.362605 1.36261,3.280834 v 0.132291 q -0.0529,1.838855 -1.36261,3.135313 -1.34937,1.362604 -3.2676,1.362604 -1.91823,0 -3.28083,-1.362604 h -0.0132 q -1.28323,-1.296458 -1.33615,-3.135313 m 0.51594,-0.132291 q 0,1.706562 1.20385,2.910416 1.20386,1.190625 2.91042,1.190625 1.69333,0 2.89719,-1.190625 l 0.0132,-0.01323 q 1.19062,-1.203854 1.19062,-2.897187 0,-1.706563 -1.19062,-2.910417 -1.20386,-1.203854 -2.91042,-1.203854 -1.69333,0 -2.91042,1.203854 -1.20385,1.217083 -1.20385,2.910417"
       id="path452" />
    <path
       style="stroke-width:0.264583"
       stroke="none"
       fill="#000000"
       fill-opacity="0.101961"
       d="m 169.42783,19.390178 v 0.132292 0.132292 0.132291 0.132292 0.132292 q 0,1.918229 -1.36261,3.267604 -1.34937,1.362604 -3.2676,1.362604 -1.91823,0 -3.28083,-1.362604 h -0.0132 q -1.33615,-1.349375 -1.33615,-3.267604 V 19.919345 19.787053 19.654762 19.52247 19.390178 q 0.0529,1.838855 1.33615,3.135313 h 0.0132 q 1.3626,1.362604 3.28083,1.362604 1.91823,0 3.2676,-1.362604 1.30969,-1.296458 1.36261,-3.135313"
       id="path454" />
    <path
       style="stroke-width:0.264583"
       stroke="none"
       fill="#b7916a"
       d="m 161.21251,19.257887 q 0,1.481666 1.03188,2.526771 1.05833,1.058333 2.55323,1.058333 1.48167,0 2.52677,-1.058333 1.05833,-1.045105 1.05833,-2.526771 0,-1.494896 -1.05833,-2.553229 -1.0451,-1.031875 -2.52677,-1.031875 -1.4949,0 -2.55323,1.031875 -1.03188,1.058333 -1.03188,2.553229 m -0.52916,0 q 0,-1.693334 1.20385,-2.910417 1.21709,-1.203854 2.91042,-1.203854 1.70656,0 2.91042,1.203854 1.19062,1.203854 1.19062,2.910417 0,1.693333 -1.19062,2.897187 l -0.0132,0.01323 q -1.20386,1.190625 -2.89719,1.190625 -1.70656,0 -2.91042,-1.190625 -1.20385,-1.203854 -1.20385,-2.910416"
       id="path456" />
    <path
       style="stroke-width:0.264583"
       stroke="none"
       fill="#97714a"
       d="m 161.21251,19.257887 q 0,-1.494896 1.03188,-2.553229 1.05833,-1.031875 2.55323,-1.031875 1.48167,0 2.52677,1.031875 1.05833,1.058333 1.05833,2.553229 0,1.481666 -1.05833,2.526771 -1.0451,1.058333 -2.52677,1.058333 -1.4949,0 -2.55323,-1.058333 -1.03188,-1.045105 -1.03188,-2.526771"
       id="path458" />
  </g>
</svg>
